HIERARCHY
ROOT hip
{
  OFFSET 0 0 0
  CHANNELS 6 Xposition Yposition Zposition Zrotation Yrotation Xrotation
  JOINT abdomen
  {
    OFFSET 0 20.6881 -0.73152
    CHANNELS 3 Zrotation Xrotation Yrotation
    JOINT chest
    {
      OFFSET 0 11.7043 -0.48768
      CHANNELS 3 Zrotation Xrotation Yrotation
      JOINT neck
      {
        OFFSET 0 22.1894 -2.19456
        CHANNELS 3 Zrotation Xrotation Yrotation
        JOINT head
        {
          OFFSET -0.24384 7.07133 1.2192
          CHANNELS 3 Zrotation Xrotation Yrotation
          JOINT leftEye
          {
            OFFSET 4.14528 8.04674 8.04672
            CHANNELS 3 Zrotation Xrotation Yrotation
            End Site
            {
              OFFSET 1 0 0
            }
          }
          JOINT rightEye
          {
            OFFSET -3.6576 8.04674 8.04672
            CHANNELS 3 Zrotation Xrotation Yrotation
            End Site
            {
              OFFSET 1 0 0
            }
          }
        }
      }
      JOINT rCollar
      {
        OFFSET -2.68224 19.2634 -4.8768
        CHANNELS 3 Zrotation Xrotation Yrotation
        JOINT rShldr
        {
          OFFSET -8.77824 -1.95073 1.46304
          CHANNELS 3 Zrotation Xrotation Yrotation
          JOINT rForeArm
          {
            OFFSET -28.1742 -1.7115 0.48768
            CHANNELS 3 Zrotation Xrotation Yrotation
            JOINT rHand
            {
              OFFSET -22.5879 0.773209 7.07136
              CHANNELS 3 Zrotation Xrotation Yrotation
              JOINT rThumb1
              {
                OFFSET -1.2192 -0.487915 3.41376
                CHANNELS 3 Zrotation Xrotation Yrotation
                JOINT rThumb2
                {
                  OFFSET -3.37035 -0.52449 3.41376
                  CHANNELS 3 Zrotation Xrotation Yrotation
                  End Site
                  {
                    OFFSET -1.78271 -1.18214 1.43049
                  }
                }
              }
              JOINT rIndex1
              {
                OFFSET -7.75947 0.938293 5.60832
                CHANNELS 3 Zrotation Xrotation Yrotation
                JOINT rIndex2
                {
                  OFFSET -2.54057 -0.884171 1.56538
                  CHANNELS 3 Zrotation Xrotation Yrotation
                  End Site
                  {
                    OFFSET -1.62519 -0.234802 1.16502
                  }
                }
              }
              JOINT rMid1
              {
                OFFSET -8.24714 1.18213 3.41376
                CHANNELS 3 Zrotation Xrotation Yrotation
                JOINT rMid2
                {
                  OFFSET -3.10165 -0.590103 1.0647
                  CHANNELS 3 Zrotation Xrotation Yrotation
                  End Site
                  {
                    OFFSET -2.48547 -0.328903 0.83742
                  }
                }
              }
              JOINT rRing1
              {
                OFFSET -8.82822 0.546677 1.51678
                CHANNELS 3 Zrotation Xrotation Yrotation
                JOINT rRing2
                {
                  OFFSET -2.60934 -0.819778 -0.0198488
                  CHANNELS 3 Zrotation Xrotation Yrotation
                  End Site
                  {
                    OFFSET -2.33842 -0.294052 0.168128
                  }
                }
              }
              JOINT rPinky1
              {
                OFFSET -8.27202 -0.0477905 -0.4584
                CHANNELS 3 Zrotation Xrotation Yrotation
                JOINT rPinky2
                {
                  OFFSET -1.82734 -0.647385 -0.700984
                  CHANNELS 3 Zrotation Xrotation Yrotation
                  End Site
                  {
                    OFFSET -1.69225 -0.51767 -0.607171
                  }
                }
              }
            }
          }
        }
      }
      JOINT lCollar
      {
        OFFSET 2.68224 19.2634 -4.8768
        CHANNELS 3 Zrotation Xrotation Yrotation
        JOINT lShldr
        {
          OFFSET 8.77824 -1.95073 1.46304
          CHANNELS 3 Zrotation Xrotation Yrotation
          JOINT lForeArm
          {
            OFFSET 28.1742 -1.7115 0.48768
            CHANNELS 3 Zrotation Xrotation Yrotation
            JOINT lHand
            {
              OFFSET 22.5879 0.773209 7.07136
              CHANNELS 3 Zrotation Xrotation Yrotation
              JOINT lThumb1
              {
                OFFSET 1.2192 -0.487915 3.41376
                CHANNELS 3 Zrotation Xrotation Yrotation
                JOINT lThumb2
                {
                  OFFSET 3.37035 -0.52449 3.41376
                  CHANNELS 3 Zrotation Xrotation Yrotation
                  End Site
                  {
                    OFFSET 1.78271 -1.18214 1.43049
                  }
                }
              }
              JOINT lIndex1
              {
                OFFSET 7.75947 0.938293 5.60832
                CHANNELS 3 Zrotation Xrotation Yrotation
                JOINT lIndex2
                {
                  OFFSET 2.54057 -0.884171 1.56538
                  CHANNELS 3 Zrotation Xrotation Yrotation
                  End Site
                  {
                    OFFSET 1.62519 -0.234802 1.16502
                  }
                }
              }
              JOINT lMid1
              {
                OFFSET 8.24714 1.18213 3.41376
                CHANNELS 3 Zrotation Xrotation Yrotation
                JOINT lMid2
                {
                  OFFSET 3.10165 -0.590103 1.0647
                  CHANNELS 3 Zrotation Xrotation Yrotation
                  End Site
                  {
                    OFFSET 2.48547 -0.328903 0.83742
                  }
                }
              }
              JOINT lRing1
              {
                OFFSET 8.82822 0.546677 1.51678
                CHANNELS 3 Zrotation Xrotation Yrotation
                JOINT lRing2
                {
                  OFFSET 2.60934 -0.819778 -0.0198488
                  CHANNELS 3 Zrotation Xrotation Yrotation
                  End Site
                  {
                    OFFSET 2.33842 -0.294052 0.168128
                  }
                }
              }
              JOINT lPinky1
              {
                OFFSET 8.27202 -0.0477905 -0.4584
                CHANNELS 3 Zrotation Xrotation Yrotation
                JOINT lPinky2
                {
                  OFFSET 1.82734 -0.647385 -0.700984
                  CHANNELS 3 Zrotation Xrotation Yrotation
                  End Site
                  {
                    OFFSET 1.69225 -0.51767 -0.607171
                  }
                }
              }
            }
          }
        }
      }
    }
  }
  JOINT rButtock
  {
    OFFSET -8.77824 4.35084 1.2192
    CHANNELS 3 Zrotation Xrotation Yrotation
    JOINT rThigh
    {
      OFFSET 0 -1.70687 -2.19456
      CHANNELS 3 Zrotation Xrotation Yrotation
      JOINT rShin
      {
        OFFSET 0 -36.8199 0.73152
        CHANNELS 3 Zrotation Xrotation Yrotation
        JOINT rFoot
        {
          OFFSET 0.73152 -45.1104 -5.12064
          CHANNELS 3 Zrotation Xrotation Yrotation
          End Site
          {
            OFFSET -1.1221 -3.69964 12.103
          }
        }
      }
    }
  }
  JOINT lButtock
  {
    OFFSET 8.77824 4.35084 1.2192
    CHANNELS 3 Zrotation Xrotation Yrotation
    JOINT lThigh
    {
      OFFSET 0 -1.70687 -2.19456
      CHANNELS 3 Zrotation Xrotation Yrotation
      JOINT lShin
      {
        OFFSET 0 -36.8199 0.73152
        CHANNELS 3 Zrotation Xrotation Yrotation
        JOINT lFoot
        {
          OFFSET -0.73152 -45.1104 -5.12064
          CHANNELS 3 Zrotation Xrotation Yrotation
          End Site
          {
            OFFSET 1.1221 -3.69964 12.103
          }
        }
      }
    }
  }
}
MOTION
Frames:	7
Frame Time:	0.00833333
-103.036 82.2556 239.91 0.0 0.0 0.0 -4.77302 0.00925676 -0.128165 -1.31325 0.0404281 -0.226877 -1.7059e-13 -3.18055e-15 -4.96965e-17 -5.14063e-13 -6.36111e-15 -4.47265e-16 -0.0 0.0 0.0 -0.0 0.0 0.0 -8.53867e-14 -7.95527e-16 1.49089e-16 -1.79849e-12 -1.65488e-14 -5.36719e-15 -3.09783e-11 8.76561e-12 2.44903e-13 -3.553e-10 -1.22075e-11 -6.93361e-13 -8.37976e-10 -7.46087e-12 -8.90555e-13 -1.44717e-09 -1.28781e-11 -1.51474e-12 -8.37972e-10 -7.45999e-12 -9.03278e-13 7.73091 5.47488 0.417314 -8.37977e-10 -7.46128e-12 -8.87375e-13 2.90554 0.965183 0.102902 -8.37972e-10 -7.46079e-12 -8.92146e-13 10.2786 0.731801 0.0259123 -8.37983e-10 -7.45761e-12 -8.81014e-13 2.22167 -0.733487 -0.20892 -8.54743e-14 -7.9475e-16 -2.98177e-16 -1.80296e-12 -1.58407e-14 -7.55382e-15 -3.10972e-11 -9.80505e-12 2.67167e-13 -3.55201e-10 6.40661e-12 -7.21986e-13 -8.38013e-10 -7.37476e-12 -9.09639e-13 -1.44722e-09 -1.27349e-11 -1.54018e-12 -8.38017e-10 -7.37173e-12 -8.96916e-13 -7.73091 5.47488 -0.417314 -8.38013e-10 -7.37451e-12 -9.09639e-13 -2.90554 0.965183 -0.102902 -8.38019e-10 -7.37481e-12 -9.11229e-13 -10.2786 0.731801 -0.0259123 -8.38012e-10 -7.37412e-12 -9.22361e-13 -2.22167 -0.733487 0.20892 -2.03217e-16 0.0 -3.88251e-19 -3.15667 -1.94856 0.0347037 -0.00820883 -2.07871 -0.0671812 -0.470585 4.00263 0.134272 2.03217e-16 0.0 3.88251e-19 -4.06351 -11.8418 0.547665 -0.0161005 15.8338 -0.442579 0.593095 -4.0161 0.0186986
-102.907 80.2206 231.033 -178.716 -3.3032 -169.494 -3.96004 -1.39297 -1.71383 -0.636549 1.64287 -0.660456 -1.37022 4.81926 -0.551783 3.50926 -13.3516 0.654126 -0.0 0.0 0.0 -0.0 0.0 0.0 -1.06005e-13 -1.53356e-13 2.06126e-14 22.837 -0.616819 -1.57865 -3.47718 -1.45643 5.55771 0.199675 9.94036 1.3223 -1.71495e-09 -7.88783e-11 1.43776e-09 -2.91837e-09 -1.50081e-10 2.51181e-09 -1.71495e-09 -7.88755e-11 1.43775e-09 7.73091 5.47488 0.417314 -1.71495e-09 -7.88774e-11 1.43777e-09 2.90554 0.965183 0.102902 -1.71495e-09 -7.88761e-11 1.43776e-09 10.2786 0.731801 0.0259123 -1.71496e-09 -7.88739e-11 1.43777e-09 2.22167 -0.733487 -0.20892 -1.06089e-13 -1.53356e-13 2.02003e-14 -22.6282 5.76206 -2.19641 3.3062 -1.35723 -5.3108 -0.0899931 6.66438 -0.91391 5.10172e-10 1.97787e-10 -7.9727e-10 8.65656e-10 3.17853e-10 -1.39886e-09 5.10169e-10 1.97791e-10 -7.97257e-10 -7.73091 5.47488 -0.417314 5.10174e-10 1.97789e-10 -7.9727e-10 -2.90554 0.965183 -0.102902 5.10166e-10 1.97789e-10 -7.9727e-10 -10.2786 0.731801 -0.0259123 5.10174e-10 1.9779e-10 -7.97279e-10 -2.22167 -0.733487 0.20892 -2.03217e-16 0.0 -3.88251e-19 -1.48855 -8.73081 0.0816228 -0.00656951 5.88186 0.060758 -0.0545818 -3.76903 2.37639 2.03217e-16 0.0 3.88251e-19 -2.73231 -17.1399 -0.0365254 0.0457518 29.6125 -0.645409 0.0532549 -7.73636 -2.73694
-102.574 80.3241 230.306 -178.247 -3.101 -169.589 -3.17774 -2.88227 -3.40527 0.10463 3.33483 -1.12371 -2.71282 9.91546 -1.15071 7.58327 -27.4852 1.47338 -0.0 0.0 0.0 -0.0 0.0 0.0 -1.30816e-13 -3.25063e-13 4.26673e-14 46.945 -1.27129 -3.27481 -6.84724 -2.95031 11.4442 -0.118466 20.4327 2.8596 -2.70196e-09 -1.60744e-10 3.04463e-09 -4.57456e-09 -3.06865e-10 5.31879e-09 -2.70196e-09 -1.60739e-10 3.04462e-09 7.73091 5.47488 0.417314 -2.70197e-09 -1.60742e-10 3.04463e-09 2.90554 0.965183 0.102902 -2.70196e-09 -1.60739e-10 3.04463e-09 10.2786 0.731801 0.0259123 -2.70197e-09 -1.60738e-10 3.04464e-09 2.22167 -0.733487 -0.20892 -1.30899e-13 -3.25062e-13 4.22883e-14 -46.067 11.8278 -4.59089 6.52186 -2.74872 -10.9232 0.0523406 13.7211 -1.92449 2.01056e-09 4.32015e-10 -1.68586e-09 3.4396e-09 6.95768e-10 -2.95817e-09 2.01056e-09 4.32021e-10 -1.68585e-09 -7.73091 5.47488 -0.417314 2.01056e-09 4.32018e-10 -1.68586e-09 -2.90554 0.965183 -0.102902 2.01055e-09 4.3202e-10 -1.68586e-09 -10.2786 0.731801 -0.0259123 2.01056e-09 4.32022e-10 -1.68587e-09 -2.22167 -0.733487 0.20892 -2.03217e-16 0.0 -3.88251e-19 0.279123 -15.9441 0.144256 -0.0438283 14.3138 0.203306 1.05317 -11.9477 4.82458 2.03217e-16 0.0 3.88251e-19 -1.44525 -22.613 -0.683606 0.264545 44.1555 -0.982432 -0.955724 -11.7831 -5.81527
-102.32 80.3805 229.543 -177.978 -2.9032 -169.767 -2.56714 -4.18403 -4.89672 0.789851 4.84635 -1.53228 -3.82449 14.4523 -1.70341 11.6793 -40.0306 2.4939 -0.0 0.0 0.0 -0.0 0.0 0.0 -1.4724e-13 -4.58478e-13 6.15398e-14 68.4091 -1.84484 -4.73814 -9.59525 -4.20514 16.714 -0.953575 29.7525 4.50177 -3.46891e-09 -2.21713e-10 4.31507e-09 -5.86077e-09 -4.24487e-10 7.53847e-09 -3.46891e-09 -2.21707e-10 4.31507e-09 7.73091 5.47488 0.417314 -3.46891e-09 -2.2171e-10 4.31508e-09 2.90554 0.965183 0.102902 -3.4689e-09 -2.21707e-10 4.31508e-09 10.2786 0.731801 0.0259123 -3.46891e-09 -2.21707e-10 4.31508e-09 2.22167 -0.733487 -0.20892 -1.4732e-13 -4.58478e-13 6.11973e-14 -66.51 17.1822 -6.86362 9.1731 -3.93198 -15.9665 0.402267 19.9721 -2.8976 3.20654e-09 6.0811e-10 -2.38999e-09 5.49141e-09 9.79028e-10 -4.19349e-09 3.20654e-09 6.08117e-10 -2.38998e-09 -7.73091 5.47488 -0.417314 3.20655e-09 6.08115e-10 -2.38999e-09 -2.90554 0.965183 -0.102902 3.20653e-09 6.08118e-10 -2.38999e-09 -10.2786 0.731801 -0.0259123 3.20654e-09 6.0812e-10 -2.38999e-09 -2.22167 -0.733487 0.20892 -2.03217e-16 0.0 -3.88251e-19 1.88367 -22.2952 0.186615 -0.11573 21.8027 0.339902 2.68302 -19.1789 7.25024 2.03217e-16 0.0 3.88251e-19 -0.431483 -27.7286 -1.32942 0.743257 57.1645 -1.53407 -2.13017 -15.045 -8.46553
-102.131 80.3709 228.767 -178.037 -2.5376 -170.09 -2.21565 -5.03025 -5.87663 1.28273 5.90806 -1.79978 -4.56595 17.5962 -2.09423 14.9723 -48.6268 3.54285 -0.0 0.0 0.0 -0.0 0.0 0.0 -1.42697e-13 -4.96167e-13 7.2457e-14 83.3388 -2.22195 -5.61717 -11.3731 -5.0186 20.4031 -1.9319 36.2053 5.90506 -3.68568e-09 -2.30441e-10 4.74447e-09 -6.22198e-09 -4.44203e-10 8.28988e-09 -3.68568e-09 -2.30434e-10 4.74446e-09 7.73091 5.47488 0.417314 -3.68568e-09 -2.30437e-10 4.74447e-09 2.90554 0.965183 0.102902 -3.68567e-09 -2.30434e-10 4.74447e-09 10.2786 0.731801 0.0259123 -3.68568e-09 -2.30434e-10 4.74447e-09 2.22167 -0.733487 -0.20892 -1.42768e-13 -4.96166e-13 7.21588e-14 -80.4499 20.8564 -8.57107 10.9289 -4.72528 -19.5553 0.778617 24.2292 -3.62625 3.64151e-09 6.38872e-10 -2.63297e-09 6.23791e-09 1.02565e-09 -4.6188e-09 3.64151e-09 6.3888e-10 -2.63296e-09 -7.73091 5.47488 -0.417314 3.64152e-09 6.38878e-10 -2.63297e-09 -2.90554 0.965183 -0.102902 3.64151e-09 6.38881e-10 -2.63296e-09 -10.2786 0.731801 -0.0259123 3.64152e-09 6.38883e-10 -2.63297e-09 -2.22167 -0.733487 0.20892 -2.03217e-16 0.0 -3.88251e-19 3.04157 -26.4912 0.163619 -0.189944 26.9345 0.436638 4.27032 -24.1662 9.23058 2.03217e-16 0.0 3.88251e-19 0.136662 -31.9566 -1.88146 1.47314 66.3426 -2.2849 -2.80002 -16.4912 -9.81357
-101.958 80.3712 227.988 -178.11 -2.1887 -170.249 -2.131 -5.24307 -6.14015 1.49466 6.34041 -1.86972 -4.90132 18.7895 -2.22166 16.4937 -51.6961 4.1097 -0.0 0.0 0.0 -0.0 0.0 0.0 -1.02826e-13 -3.82095e-13 7.2379e-14 89.1317 -2.40058 -5.65612 -12.0266 -5.31174 21.8261 -2.43278 38.7599 6.54712 -3.05093e-09 -1.58781e-10 3.88659e-09 -5.1512e-09 -3.13669e-10 6.7941e-09 -3.05093e-09 -1.58777e-10 3.88658e-09 7.73091 5.47488 0.417314 -3.05093e-09 -1.5878e-10 3.88659e-09 2.90554 0.965183 0.102902 -3.05092e-09 -1.58778e-10 3.88659e-09 10.2786 0.731801 0.0259123 -3.05093e-09 -1.58777e-10 3.8866e-09 2.22167 -0.733487 -0.20892 -1.02876e-13 -3.82095e-13 7.21487e-14 -85.7739 22.2622 -9.311 11.6602 -5.06881 -21.1041 0.940922 25.6735 -3.891 2.89193e-09 4.33907e-10 -2.16513e-09 4.95249e-09 6.87616e-10 -3.79518e-09 2.89193e-09 4.33915e-10 -2.16512e-09 -7.73091 5.47488 -0.417314 2.89194e-09 4.33914e-10 -2.16513e-09 -2.90554 0.965183 -0.102902 2.89192e-09 4.33917e-10 -2.16513e-09 -10.2786 0.731801 -0.0259123 2.89193e-09 4.33919e-10 -2.16513e-09 -2.22167 -0.733487 0.20892 -2.03217e-16 0.0 -3.88251e-19 3.57926 -27.6698 0.0336356 -0.223592 28.7496 0.457078 5.10146 -26.0998 10.261 2.03217e-16 0.0 3.88251e-19 0.205499 -35.0333 -2.22068 2.02997 70.3819 -2.81749 -2.39249 -15.357 -9.18257
-101.754 80.5474 227.178 -177.996 -1.9287 -170.317 -2.22488 -5.00559 -5.88998 1.50034 6.32345 -1.79759 -4.96858 18.5908 -2.15144 16.4844 -50.8286 4.10063 -0.0 0.0 0.0 -0.0 0.0 0.0 -3.80055e-14 -1.60468e-13 6.44404e-14 88.4058 -2.43466 -5.09564 -11.933 -5.26461 21.6257 -2.38467 38.546 6.48972 -1.81182e-09 -3.00472e-11 2.11447e-09 -3.06408e-09 -7.64412e-11 3.70232e-09 -1.81182e-09 -3.00472e-11 2.11446e-09 7.73091 5.47488 0.417314 -1.81182e-09 -3.00508e-11 2.11447e-09 2.90554 0.965183 0.102902 -1.81181e-09 -3.00492e-11 2.11447e-09 10.2786 0.731801 0.0259123 -1.81182e-09 -3.00471e-11 2.11448e-09 2.22167 -0.733487 -0.20892 -3.80259e-14 -1.6047e-13 6.42944e-14 -85.0642 22.0697 -9.3007 11.7118 -5.11856 -21.1892 0.890808 25.1145 -3.79162 1.30191e-09 6.2103e-11 -1.19267e-09 2.22544e-09 7.73632e-11 -2.08494e-09 1.30191e-09 6.21111e-11 -1.19266e-09 -7.73091 5.47488 -0.417314 1.30192e-09 6.211e-11 -1.19267e-09 -2.90554 0.965183 -0.102902 1.3019e-09 6.21131e-11 -1.19267e-09 -10.2786 0.731801 -0.0259123 1.30191e-09 6.21143e-11 -1.19267e-09 -2.22167 -0.733487 0.20892 -2.03217e-16 0.0 -3.88251e-19 3.68107 -26.693 -0.169189 -0.218861 28.1966 0.417229 5.19463 -25.8881 10.5017 2.03217e-16 0.0 3.88251e-19 -0.0452889 -37.2852 -2.38831 2.09787 70.7439 -2.83473 -1.35494 -12.3565 -7.19086
